<?xml version="1.0" encoding="iso-8859-1"?>
<!-- Generator: Adobe Illustrator 18.1.1, SVG Export Plug-In . SVG Version: 6.00 Build 0)  -->
<svg version="1.1" id="Capa_1" xmlns="http://www.w3.org/2000/svg" xmlns:xlink="http://www.w3.org/1999/xlink" x="0px" y="0px"
	 viewBox="0 0 612.001 612.001" style="enable-background:new 0 0 612.001 612.001;" xml:space="preserve">
<g>
	<g>
		<g>
			<path d="M487.649,462.042c35.831-41.892,57.505-96.236,57.505-155.553c0-59.567-21.852-114.122-57.954-156.085l119.497-119.5
				c7.069-7.071,7.069-18.532,0-25.602c-7.071-7.069-18.532-7.069-25.602,0l-119.497,119.5
				c-41.963-36.102-96.52-57.954-156.088-57.954c-59.316,0-113.66,21.674-155.553,57.505L30.907,5.303
				c-7.069-7.071-18.533-7.069-25.602,0s-7.069,18.532,0,25.602l118.968,118.969c-36.371,42.031-58.401,96.799-58.401,156.615
				c0,59.565,21.852,114.119,57.953,156.084L5.305,581.096c-7.071,7.071-7.069,18.532,0,25.602c3.535,3.535,8.168,5.303,12.8,5.303
				s9.266-1.768,12.8-5.303l118.518-118.523c41.963,36.102,96.518,57.954,156.084,57.954c59.817,0,114.585-22.03,156.618-58.402
				l118.966,118.971c3.535,3.535,8.168,5.303,12.8,5.303c4.633,0,9.266-1.768,12.8-5.303c7.069-7.069,7.071-18.532,0-25.602
				L487.649,462.042z M305.509,509.923c-112.173,0-203.432-91.259-203.432-203.434c0-112.173,91.259-203.435,203.432-203.435
				c112.176,0,203.437,91.261,203.437,203.435C508.947,418.662,417.685,509.923,305.509,509.923z"/>
			<path d="M409.661,268.677h-13.773c-1.376-28.316-6.209-48.904-15.199-65.301c-14.677-26.77-39.807-40.343-74.689-40.343
				s-60.01,13.573-74.687,40.343c-8.99,16.395-13.823,36.985-15.198,65.301h-13.773c-9.999,0-18.103,8.106-18.103,18.103v130.433
				c0,9.997,8.106,18.103,18.103,18.103h207.32c9.997,0,18.103-8.106,18.103-18.103V286.78
				C427.764,276.782,419.66,268.677,409.661,268.677z M391.557,399.11H220.444v-94.227h171.114V399.11z M305.999,199.238
				c30.428,0,50.312,12.171,53.612,69.438H252.39C255.692,211.41,275.572,199.238,305.999,199.238z"/>
		</g>
	</g>
</g>
<g>
</g>
<g>
</g>
<g>
</g>
<g>
</g>
<g>
</g>
<g>
</g>
<g>
</g>
<g>
</g>
<g>
</g>
<g>
</g>
<g>
</g>
<g>
</g>
<g>
</g>
<g>
</g>
<g>
</g>
</svg>
